<svg width="640" height="520" viewBox="0 0 640 520" fill="none" xmlns="http://www.w3.org/2000/svg">
  <defs>
    <filter id="paper" x="0" y="0" width="1" height="1">
      <feTurbulence type="fractalNoise" baseFrequency=".02 .036" numOctaves="3" seed="33"/>
      <feColorMatrix type="matrix" values="0 0 0 0 .78 0 0 0 0 .36 0 0 0 0 .18 0 0 0 .12 0"/>
      <feBlend mode="multiply" in2="SourceGraphic"/>
    </filter>
    <filter id="shadow" x="38" y="48" width="564" height="390" color-interpolation-filters="sRGB">
      <feDropShadow dx="0" dy="10" stdDeviation="12" flood-color="#7B351B" flood-opacity=".06"/>
    </filter>
  </defs>
  <g filter="url(#shadow)">
    <path d="M104 82h432c22.1 0 40 17.9 40 40v236c0 22.1-17.9 40-40 40H104c-22.1 0-40-17.9-40-40V122c0-22.1 17.9-40 40-40Z" fill="#FFF4E9" filter="url(#paper)"/>
    <path d="M104 82h432c22.1 0 40 17.9 40 40v236c0 22.1-17.9 40-40 40H104c-22.1 0-40-17.9-40-40V122c0-22.1 17.9-40 40-40Z" stroke="#C65A2A" stroke-width="1.4" stroke-opacity=".78"/>
    <path d="M128 108h384c18.8 0 34 15.2 34 34v196c0 18.8-15.2 34-34 34H128c-18.8 0-34-15.2-34-34V142c0-18.8 15.2-34 34-34Z" stroke="#E7A35B" stroke-width=".8" stroke-opacity=".42"/>
    <path d="M320 92l7 7-7 7-7-7 7-7ZM320 374l7 7-7 7-7-7 7-7Z" fill="#D86B32" fill-opacity=".64"/>
  </g>
</svg>
